<?xml version="1.0" encoding="UTF-8"?> <svg xmlns="http://www.w3.org/2000/svg" width="178" height="21" viewBox="0 0 178 21" fill="none"><path d="M93.43 3.47184V0.421096H107.695V3.47184H102.514V20.3068H98.6206V3.47184H93.43Z" fill="#FA4B23"></path><path d="M110.359 0.421096H118.97C122.571 0.421096 124.668 2.52654 124.668 5.93821V6.66008C124.668 9.29832 123.405 10.9999 121.342 11.5155C122.519 11.8936 123.241 12.8991 123.585 14.635L124.127 17.4881C124.427 18.9748 124.805 19.7654 125.261 20.1779V20.3068H120.964C120.689 19.7482 120.466 19.0177 120.242 17.6599L119.855 15.1764C119.58 13.5951 118.798 12.8991 117.372 12.8991H114.252V20.3068H110.359V0.421096ZM120.775 7.19288V6.29055C120.775 4.48589 119.709 3.42028 117.956 3.42028H114.252V10.0889H117.956C119.701 10.0889 120.775 9.02333 120.775 7.19288Z" fill="#FA4B23"></path><path d="M137.154 0.421099L143.033 20.3068H138.985L137.919 16.242H131.663L130.606 20.3068H126.679L132.557 0.421099H137.154ZM137.163 13.3717L134.774 4.30542L132.402 13.3717H137.163Z" fill="#FA4B23"></path><path d="M144.519 8.60224C144.519 2.76716 147.278 0.00860056 152.451 0.00860056C157.625 0.00860056 159.799 2.49216 159.859 7.28741V7.76006H155.906V7.09835C155.854 4.39136 154.522 3.05075 152.408 3.05075C150.294 3.05075 148.524 4.64916 148.524 8.19834V12.5209C148.524 16.0959 150.122 17.6943 152.417 17.6943C154.711 17.6943 155.966 16.3107 156.009 13.5178V12.7444H159.971V13.303C159.945 18.2271 157.435 20.7365 152.46 20.7365C147.484 20.7365 144.519 17.9779 144.519 12.1428V8.60224Z" fill="#FA4B23"></path><path d="M162.97 0.421099H166.863V8.9374L173.42 0.421099H177.553L171.761 7.94913L178 20.3068H173.712L169.243 10.9655L166.854 14.1279V20.3154H162.961V0.429693L162.97 0.421099Z" fill="#FA4B23"></path><path d="M37.7003 5.49993C39.1574 5.49993 40.3385 4.31875 40.3385 2.86168C40.3385 1.40462 39.1574 0.223435 37.7003 0.223435C36.2432 0.223435 35.062 1.40462 35.062 2.86168C35.062 4.31875 36.2432 5.49993 37.7003 5.49993Z" fill="black"></path><path d="M37.7003 20.5044C39.1574 20.5044 40.3385 19.3232 40.3385 17.8662C40.3385 16.4091 39.1574 15.2279 37.7003 15.2279C36.2432 15.2279 35.062 16.4091 35.062 17.8662C35.062 19.3232 36.2432 20.5044 37.7003 20.5044Z" fill="black"></path><path d="M0 0.421088H8.42176C12.1428 0.421088 14.3342 2.58668 14.3342 6.13586V7.39912C14.3342 11.0084 12.1428 13.1826 8.42176 13.1826H3.90151V20.3154H0V0.421088ZM10.4241 6.31632C10.4241 4.50307 9.34128 3.42027 7.60537 3.42027H3.90151V10.3725H7.60537C9.34128 10.3725 10.4241 9.28972 10.4241 7.47646V6.31632Z" fill="black"></path><path d="M16.6373 12.1256V8.60223C16.6373 2.75856 19.413 0 24.5262 0C29.6395 0 32.4324 2.75856 32.4324 8.60223V12.1256C32.4324 17.9693 29.6566 20.7278 24.5262 20.7278C19.3958 20.7278 16.6373 17.9693 16.6373 12.1256ZM28.4278 12.4866V8.2413C28.4278 4.64916 26.8207 3.04215 24.5262 3.04215C22.2317 3.04215 20.6419 4.64916 20.6419 8.2413V12.4866C20.6419 16.0787 22.2489 17.6857 24.5262 17.6857C26.8036 17.6857 28.4278 16.0787 28.4278 12.4866Z" fill="black"></path><path d="M43.6471 0.421088H48.1158L54.9391 14.1709V0.421088H58.4195V20.3154H54.3805L47.1103 5.74055L47.1275 20.3154H43.6471V0.421088Z" fill="black"></path><path d="M65.9562 3.58355H60.7656V0.421088H75.0396V3.58355H69.8491V20.3154H65.9476V3.58355H65.9562Z" fill="black"></path><path d="M76.3802 13.7756L80.2904 13.7584V14.4975C80.3419 16.6373 81.4935 17.8146 83.9512 17.8146C86.409 17.8146 87.3629 16.7146 87.3629 14.9271V14.6522C87.3629 13.2256 86.6239 12.4608 85.1458 12.1686L80.8833 11.378C78.1334 10.8366 76.5693 9.30691 76.5693 6.25617V5.87805C76.5693 2.22575 78.7779 0 83.702 0C88.6262 0 90.6972 2.17419 90.723 5.98117V6.45382H86.8559V5.9382C86.8043 3.97026 85.7731 2.91324 83.6247 2.91324C81.4763 2.91324 80.488 3.95307 80.488 5.66321V5.89524C80.488 7.32178 81.2271 8.06943 82.6536 8.3788L86.9504 9.15223C89.7262 9.71081 91.2816 11.2147 91.2816 14.3857V14.7639C91.2816 18.4935 89.0731 20.7278 83.8567 20.7278C78.6404 20.7278 76.4232 18.4935 76.3802 14.4201V13.7756Z" fill="black"></path></svg> 